<svg xmlns="http://www.w3.org/2000/svg" width="420" height="560" viewBox="0 0 420 560">
  <rect width="420" height="560" rx="28" fill="#fbfaf4"/>
  <rect x="30" y="30" width="360" height="500" rx="26" fill="#ede4d2" opacity="0.62"/>
  <circle cx="210" cy="112" r="40" fill="#f9eee6"/>
  <path d="M154 195c10-48 102-48 112 0l25 108H129l25-108z" fill="#fff8ec" opacity="0.86"/>
  <path d="M176 172h68l24 96H152l24-96z" fill="#ede4d2"/>
  <path d="M151 268h118l-24 150h-70l-24-150z" fill="#ffffff" opacity="0.74"/>
  <g><rect x="58" y="284" width="48" height="68" rx="14" fill="#ede4d2"/><text x="82" y="372" text-anchor="middle" font-size="11" fill="#4f534b">奶油色衬</text></g><g><rect x="120" y="284" width="48" height="68" rx="14" fill="#cad9e1"/><text x="144" y="372" text-anchor="middle" font-size="11" fill="#4f534b">浅蓝直筒</text></g><g><rect x="182" y="284" width="48" height="68" rx="14" fill="#d7c2a3"/><text x="206" y="372" text-anchor="middle" font-size="11" fill="#4f534b">米色单肩</text></g><g><rect x="244" y="284" width="48" height="68" rx="14" fill="#d8d8d2"/><text x="268" y="372" text-anchor="middle" font-size="11" fill="#4f534b">小白鞋</text></g><g><rect x="306" y="284" width="48" height="68" rx="14" fill="#ede4d2"/><text x="330" y="372" text-anchor="middle" font-size="11" fill="#4f534b">珍珠耳环</text></g>
  <text x="210" y="476" text-anchor="middle" font-size="24" font-weight="700" fill="#34362f">为你生成的穿搭</text>
  <text x="210" y="510" text-anchor="middle" font-size="14" fill="#72766d">奶油色衬衫 · 上衣 · 约会、通勤</text>
</svg>